<?xml version="1.0" standalone="no"?>
<!DOCTYPE svg PUBLIC "-//W3C//DTD SVG 20010904//EN"
 "http://www.w3.org/TR/2001/REC-SVG-20010904/DTD/svg10.dtd">
<svg version="1.0" xmlns="http://www.w3.org/2000/svg"
 width="100.000000pt" height="100.000000pt" viewBox="0 0 100.000000 100.000000"
 preserveAspectRatio="xMidYMid meet">

<g transform="translate(0.000000,100.000000) scale(0.100000,-0.100000)"
fill="#000000" stroke="none">
<path d="M151 851 c-29 -29 -33 -79 -29 -388 l3 -283 28 -27 27 -28 320 0 320
0 27 28 28 27 0 319 0 319 -24 26 -24 26 -329 0 c-311 0 -329 -1 -347 -19z
m639 -351 l0 -290 -290 0 -290 0 0 290 0 290 290 0 290 0 0 -290z"/>
<path d="M292 669 l3 -44 65 -6 c76 -7 131 -32 181 -86 52 -54 72 -98 78 -173
l6 -65 43 -3 42 -3 0 38 c0 60 -28 153 -62 206 -66 103 -167 162 -295 174
l-64 6 3 -44z"/>
<path d="M290 500 c0 -38 1 -40 33 -40 17 0 48 -8 67 -18 40 -19 70 -71 70
-119 0 -32 2 -33 40 -33 l40 0 0 44 c0 28 -10 62 -28 97 -22 43 -38 59 -81 81
-35 18 -69 28 -97 28 l-44 0 0 -40z"/>
<path d="M301 356 c-28 -33 22 -83 55 -55 8 7 14 24 12 38 -2 20 -9 27 -29 29
-14 2 -31 -4 -38 -12z"/>
</g>
</svg>
