<?xml version="1.0" standalone="no"?>
<!DOCTYPE svg PUBLIC "-//W3C//DTD SVG 20010904//EN"
 "http://www.w3.org/TR/2001/REC-SVG-20010904/DTD/svg10.dtd">
<svg version="1.0" xmlns="http://www.w3.org/2000/svg"
 width="100.000000pt" height="100.000000pt" viewBox="0 0 100.000000 100.000000"
 preserveAspectRatio="xMidYMid meet">

<g transform="translate(0.000000,100.000000) scale(0.100000,-0.100000)"
fill="#000000" stroke="none">
<path d="M158 859 c-32 -18 -38 -78 -37 -364 0 -319 4 -343 59 -362 49 -17
591 -17 640 0 55 19 59 43 59 362 1 290 -5 347 -39 365 -25 13 -659 13 -682
-1z m295 -139 c162 -61 287 -227 290 -389 2 -50 -2 -66 -15 -75 -32 -20 -51 5
-68 90 -19 96 -47 152 -105 209 -56 56 -125 91 -211 106 -76 14 -94 23 -94 48
0 9 6 23 13 30 17 18 118 8 190 -19z m-57 -157 c101 -34 190 -161 182 -259 -6
-77 -68 -71 -79 8 -4 25 -14 58 -22 74 -32 62 -112 114 -175 114 -31 0 -52 16
-52 40 0 42 61 52 146 23z m-38 -205 c7 -7 12 -25 12 -42 0 -59 -59 -87 -100
-46 -24 24 -26 57 -3 82 18 20 73 24 91 6z"/>
</g>
</svg>
