<?xml version="1.0" standalone="no"?>
<!DOCTYPE svg PUBLIC "-//W3C//DTD SVG 20010904//EN"
 "http://www.w3.org/TR/2001/REC-SVG-20010904/DTD/svg10.dtd">
<svg version="1.0" xmlns="http://www.w3.org/2000/svg"
 width="96.000000pt" height="96.000000pt" viewBox="0 0 96.000000 96.000000"
 preserveAspectRatio="xMidYMid meet">

<g transform="translate(0.000000,96.000000) scale(0.100000,-0.100000)"
fill="#000000" stroke="none">
<path d="M227 777 c-12 -5 -34 -19 -48 -33 -24 -23 -26 -29 -17 -67 5 -23 13
-125 17 -227 6 -160 10 -191 27 -220 46 -79 112 -98 349 -102 186 -3 211 5
246 75 20 39 22 55 20 242 -1 185 -3 203 -24 245 -16 34 -33 50 -67 67 -41 20
-63 22 -263 25 -120 2 -228 -1 -240 -5z m264 -173 c108 -35 168 -126 177 -272
5 -79 4 -84 -14 -80 -14 2 -21 15 -25 48 -9 66 -23 95 -76 151 -59 63 -116 97
-176 105 -39 6 -48 11 -54 31 -3 16 -1 29 8 34 17 12 99 3 160 -17z m-74 -163
c44 -21 83 -75 101 -143 10 -36 9 -38 -14 -38 -19 0 -24 5 -24 26 0 35 -28 91
-54 110 -11 8 -38 19 -58 25 -22 5 -38 16 -38 24 0 20 36 19 87 -4z m-50 -132
c17 -17 4 -39 -23 -39 -17 0 -24 6 -24 18 0 32 25 43 47 21z"/>
</g>
</svg>
