<?xml version="1.0" encoding="UTF-8"?>
<svg xmlns="http://www.w3.org/2000/svg" xmlns:xlink="http://www.w3.org/1999/xlink" viewBox="0 0 50 50" width="50px" height="50px">
<g id="surface112300841">
<rect x="0" y="0" width="50" height="50" style="fill:rgb(7.843138%,15.686275%,31.37255%);fill-opacity:1;stroke:none;"/>
<path style=" stroke:none;fill-rule:nonzero;fill:rgb(100%,100%,100%);fill-opacity:1;" d="M 5 5 C 4.449219 5 4 5.449219 4 6 L 4 44 C 4 44.550781 4.449219 45 5 45 L 8 45 C 8.359375 45.003906 8.695312 44.816406 8.878906 44.503906 C 9.058594 44.191406 9.058594 43.808594 8.878906 43.496094 C 8.695312 43.183594 8.359375 42.996094 8 43 L 6 43 L 6 7 L 8 7 C 8.359375 7.003906 8.695312 6.816406 8.878906 6.503906 C 9.058594 6.191406 9.058594 5.808594 8.878906 5.496094 C 8.695312 5.183594 8.359375 4.996094 8 5 Z M 42 5 C 41.640625 4.996094 41.304688 5.183594 41.121094 5.496094 C 40.941406 5.808594 40.941406 6.191406 41.121094 6.503906 C 41.304688 6.816406 41.640625 7.003906 42 7 L 44 7 L 44 43 L 42 43 C 41.640625 42.996094 41.304688 43.183594 41.121094 43.496094 C 40.941406 43.808594 40.941406 44.191406 41.121094 44.503906 C 41.304688 44.816406 41.640625 45.003906 42 45 L 45 45 C 45.550781 45 46 44.550781 46 44 L 46 6 C 46 5.449219 45.550781 5 45 5 Z M 31.074219 17.511719 C 29.976562 17.488281 28.867188 17.761719 27.976562 18.375 C 27.40625 18.765625 26.914062 19.273438 26.347656 19.757812 C 25.488281 18.039062 23.929688 17.582031 22.152344 17.550781 C 20.351562 17.519531 18.921875 18.34375 17.667969 19.84375 L 17.667969 18 L 14 18 L 14 32 L 17.664062 32 C 17.664062 32 17.65625 26.765625 17.667969 24.167969 C 17.671875 23.703125 17.6875 23.230469 17.78125 22.78125 C 18.074219 21.390625 19.539062 20.535156 20.957031 20.648438 C 22.308594 20.757812 23.101562 21.496094 23.164062 23.097656 C 23.175781 23.375 23.164062 32 23.164062 32 L 26.832031 32 L 26.832031 24.230469 C 26.839844 23.628906 26.902344 23.015625 27.046875 22.4375 C 27.371094 21.136719 28.589844 20.5 30.019531 20.65625 C 31.28125 20.796875 32.238281 21.476562 32.332031 22.851562 L 32.332031 32 L 36 32 L 36 22 C 36 21 35.746094 20.492188 35.441406 19.882812 C 34.710938 18.40625 32.90625 17.546875 31.074219 17.511719 Z M 31.074219 17.511719 "/>
</g>
</svg>
