<?xml version="1.0" standalone="no"?>
<!DOCTYPE svg PUBLIC "-//W3C//DTD SVG 20010904//EN"
 "http://www.w3.org/TR/2001/REC-SVG-20010904/DTD/svg10.dtd">
<svg version="1.0" xmlns="http://www.w3.org/2000/svg"
 width="96.000000pt" height="96.000000pt" viewBox="0 0 96.000000 96.000000"
 preserveAspectRatio="xMidYMid meet">

<g transform="translate(0.000000,96.000000) scale(0.100000,-0.100000)"
fill="#000000" stroke="none">
<path d="M163 828 c-41 -20 -44 -48 -41 -366 3 -274 5 -303 21 -319 16 -17 44
-18 337 -18 293 0 321 1 337 18 16 16 18 45 21 319 3 322 0 347 -44 367 -33
15 -600 14 -631 -1z m635 -30 c17 -17 17 -619 0 -636 -17 -17 -619 -17 -636 0
-17 17 -17 619 0 636 17 17 619 17 636 0z"/>
<path d="M192 768 c-17 -17 -17 -559 0 -576 17 -17 559 -17 576 0 17 17 17
559 0 576 -17 17 -559 17 -576 0z m558 -288 l0 -270 -270 0 -270 0 0 270 0
270 270 0 270 0 0 -270z"/>
</g>
</svg>
