<?xml version="1.0" standalone="no"?>
<!DOCTYPE svg PUBLIC "-//W3C//DTD SVG 20010904//EN"
 "http://www.w3.org/TR/2001/REC-SVG-20010904/DTD/svg10.dtd">
<svg version="1.0" xmlns="http://www.w3.org/2000/svg"
 width="96.000000pt" height="96.000000pt" viewBox="0 0 96.000000 96.000000"
 preserveAspectRatio="xMidYMid meet">

<g transform="translate(0.000000,96.000000) scale(0.100000,-0.100000)"
fill="#000000" stroke="none">
<path d="M0 480 l0 -480 480 0 480 0 0 480 0 480 -480 0 -480 0 0 -480z m412
210 c106 -40 182 -104 242 -203 33 -56 66 -166 66 -221 0 -24 -3 -26 -45 -26
-44 0 -45 1 -45 33 0 96 -67 221 -152 283 -53 39 -149 74 -204 74 -34 0 -34 0
-34 46 l0 47 62 -7 c34 -4 83 -16 110 -26z m-6 -130 c103 -50 175 -151 190
-267 l7 -53 -47 0 c-44 0 -46 1 -46 28 0 118 -124 242 -242 242 -27 0 -28 2
-28 46 l0 47 53 -7 c28 -4 80 -20 113 -36z m-48 -109 c64 -33 106 -93 118
-170 l7 -41 -45 0 c-45 0 -45 0 -52 39 -8 52 -55 99 -107 107 -39 7 -39 7 -39
52 l0 45 41 -7 c22 -4 57 -15 77 -25z m-31 -124 c12 -12 25 -37 29 -54 l7 -33
-62 0 -61 0 0 61 0 62 33 -7 c17 -4 42 -17 54 -29z"/>
<path d="M270 678 c0 -11 18 -19 58 -27 164 -32 291 -159 323 -323 8 -40 16
-58 27 -58 12 0 14 9 9 44 -26 189 -184 347 -373 373 -35 5 -44 3 -44 -9z"/>
<path d="M270 557 c0 -10 17 -19 50 -27 103 -25 185 -107 210 -210 8 -33 17
-50 27 -50 13 0 14 8 9 42 -19 119 -136 235 -255 254 -33 5 -41 4 -41 -9z"/>
<path d="M270 437 c0 -6 22 -22 49 -35 49 -22 91 -71 91 -106 0 -17 26 -33 36
-23 10 10 -17 77 -44 109 -39 46 -132 85 -132 55z"/>
<path d="M270 300 c0 -27 3 -30 30 -30 36 0 38 9 7 38 -31 29 -37 28 -37 -8z"/>
</g>
</svg>
