<?xml version="1.0" standalone="no"?>
<!DOCTYPE svg PUBLIC "-//W3C//DTD SVG 20010904//EN"
 "http://www.w3.org/TR/2001/REC-SVG-20010904/DTD/svg10.dtd">
<svg version="1.0" xmlns="http://www.w3.org/2000/svg"
 width="500.000000pt" height="500.000000pt" viewBox="0 0 500.000000 500.000000"
 preserveAspectRatio="xMidYMid meet">

<g transform="translate(0.000000,500.000000) scale(0.100000,-0.100000)"
fill="#000000" stroke="none">
<path d="M2463 3690 c-491 -62 -891 -410 -1019 -885 -36 -135 -49 -283 -35
-413 12 -113 46 -255 80 -335 12 -27 21 -50 21 -52 0 -1 -21 -8 -47 -16 -64
-18 -134 -87 -152 -151 -13 -45 -14 -46 -46 -41 -44 7 -115 -27 -137 -65 -13
-21 -28 -31 -54 -35 -101 -17 -182 -117 -172 -212 8 -70 49 -129 111 -159 53
-26 54 -26 268 -24 206 3 214 4 214 23 0 19 -8 20 -225 25 -213 5 -227 6 -256
27 -91 65 -80 210 20 257 19 9 50 16 70 16 31 0 38 5 55 38 29 57 87 77 140
48 36 -20 51 -10 51 34 0 128 127 215 243 166 35 -14 97 -78 97 -99 0 -7 6
-22 14 -32 13 -17 15 -17 50 10 98 74 230 20 244 -101 4 -36 2 -44 -12 -44
-26 0 -76 -53 -82 -87 -9 -45 11 -43 26 2 16 48 50 69 97 60 130 -24 167 -191
59 -268 -27 -19 -47 -23 -156 -27 -117 -5 -125 -6 -125 -25 0 -19 8 -20 105
-23 120 -4 169 7 222 49 l37 29 84 -24 c135 -39 203 -49 342 -50 148 0 241 14
369 55 280 92 518 280 660 524 l38 64 117 3 c108 3 116 4 116 23 0 19 -8 20
-103 23 -94 2 -103 4 -97 20 72 178 98 304 97 482 0 77 -6 166 -14 208 -8 39
-11 72 -6 72 14 0 89 -72 103 -100 7 -14 17 -44 21 -65 4 -22 12 -43 17 -47 6
-4 27 7 46 24 19 17 49 37 67 44 118 49 259 -37 272 -165 5 -51 4 -51 -24 -51
-48 0 -124 -66 -124 -107 0 -21 20 -14 29 10 5 12 21 33 36 47 23 21 36 25 90
25 54 0 70 -5 106 -30 117 -83 117 -247 0 -330 l-43 -30 -181 -5 c-174 -5
-182 -6 -182 -25 0 -19 7 -20 180 -20 169 0 183 1 228 24 96 47 153 168 128
274 -20 87 -90 164 -165 183 -18 4 -26 13 -26 28 0 47 -34 121 -75 161 -45 45
-115 75 -176 75 -43 0 -116 -24 -140 -46 -16 -14 -18 -12 -29 20 -15 46 -84
120 -138 149 -40 20 -46 29 -81 117 -154 382 -487 659 -888 736 -97 18 -270
25 -360 14z m272 -75 c352 -32 696 -272 864 -600 138 -269 162 -587 66 -876
-128 -384 -458 -669 -863 -745 -163 -30 -394 -16 -543 34 l-54 19 -6 60 c-3
33 -9 64 -13 71 -3 6 20 0 51 -13 127 -51 177 -59 363 -59 200 0 267 14 415
83 112 52 185 102 273 185 99 94 156 172 214 292 76 159 91 229 92 422 1 148
-1 165 -17 177 -23 16 -38 76 -25 98 16 29 -77 237 -105 237 -18 0 -58 67 -51
85 9 22 -75 116 -171 192 -100 81 -251 155 -380 189 -86 23 -120 27 -245 27
-125 0 -159 -4 -245 -27 -349 -92 -615 -350 -722 -701 -25 -83 -27 -103 -27
-265 0 -149 3 -187 22 -255 26 -92 92 -238 139 -304 l32 -45 -30 -13 c-30 -13
-32 -12 -75 36 -24 26 -57 54 -73 61 -25 10 -36 26 -62 93 -206 536 -16 1103
468 1394 139 84 305 137 473 153 83 7 113 6 235 -5z m-487 -504 c32 -16 73
-41 89 -55 l31 -26 245 0 244 0 38 30 c53 42 138 80 194 87 l48 5 12 -62 c7
-35 11 -91 10 -124 -3 -58 -1 -65 39 -125 101 -152 101 -334 -1 -483 -50 -72
-140 -139 -220 -163 -28 -9 -94 -18 -144 -22 -81 -5 -93 -8 -93 -24 0 -10 12
-25 28 -33 34 -18 64 -51 88 -96 15 -29 19 -64 22 -195 2 -88 -1 -178 -5 -200
-9 -39 -10 -40 -68 -53 -82 -18 -323 -20 -406 -4 -79 16 -79 16 -79 173 l0 99
-68 0 c-126 0 -204 46 -259 153 -14 29 -43 72 -64 96 -45 50 -48 61 -18 61 35
0 82 -35 124 -93 52 -72 90 -96 169 -110 86 -14 114 -5 132 47 17 53 43 86 87
115 20 13 37 33 37 43 0 15 -8 18 -52 18 -205 0 -361 87 -438 243 -74 152 -53
324 57 462 38 48 40 54 46 140 10 137 11 139 68 132 26 -3 74 -19 107 -36z"/>
<path d="M3080 2812 c0 -5 11 -19 24 -31 14 -13 30 -36 36 -52 7 -16 16 -29
21 -29 22 0 1 50 -39 93 -26 27 -42 34 -42 19z"/>
<path d="M3170 2585 c0 -37 4 -65 10 -65 6 0 10 28 10 65 0 37 -4 65 -10 65
-6 0 -10 -28 -10 -65z"/>
<path d="M3136 2443 c-38 -73 -125 -133 -226 -154 -65 -13 -88 -29 -43 -29 56
0 160 39 210 79 51 40 101 115 84 126 -6 3 -17 -7 -25 -22z"/>
<path d="M1554 1335 c-4 -9 -2 -21 4 -27 15 -15 44 -1 40 19 -4 23 -36 29 -44
8z"/>
<path d="M1654 1335 c-10 -25 9 -37 52 -33 31 2 39 7 39 23 0 16 -8 21 -43 23
-32 2 -44 -1 -48 -13z"/>
</g>
</svg>
